<svg width="24" height="24" viewBox="0 0 24 24" fill="none" xmlns="http://www.w3.org/2000/svg">
<rect x="4" y="4" width="15.9995" height="15.9998" fill="white" fill-opacity="0.01"/>
<path d="M7.54632 13.6683L6.9894 15.7474L4.95387 15.7905C4.34554 14.6621 4.00049 13.3712 4.00049 11.9993C4.00049 10.6727 4.3231 9.42177 4.89496 8.32025H4.8954L6.70759 8.6525L7.50144 10.4538C7.33529 10.9382 7.24473 11.4582 7.24473 11.9993C7.2448 12.5866 7.35117 13.1492 7.54632 13.6683Z" fill="#FBBB00"/>
<path d="M19.8604 10.5052C19.9523 10.9891 20.0002 11.4889 20.0002 11.9997C20.0002 12.5724 19.9399 13.1311 19.8252 13.67C19.4358 15.5038 18.4182 17.1051 17.0086 18.2383L17.0082 18.2378L14.7256 18.1214L14.4026 16.1047C15.3379 15.5561 16.0689 14.6977 16.454 13.67H12.1763V10.5052H16.5164H19.8604Z" fill="#518EF8"/>
<path d="M17.0077 18.2383L17.0082 18.2387C15.6373 19.3407 13.8957 20 12 20C8.95349 20 6.30479 18.2972 4.95361 15.7913L7.54607 13.6692C8.22164 15.4722 9.96093 16.7557 12 16.7557C12.8764 16.7557 13.6975 16.5188 14.4021 16.1052L17.0077 18.2383Z" fill="#28B446"/>
<path d="M17.1068 5.84172L14.5152 7.96344C13.786 7.50763 12.924 7.24433 12.0005 7.24433C9.91533 7.24433 8.14351 8.58671 7.50178 10.4544L4.8957 8.32081H4.89526C6.22666 5.75382 8.90877 4 12.0005 4C13.9416 4 15.7213 4.69143 17.1068 5.84172Z" fill="#F14336"/>
</svg>
