<svg width="20" height="11" viewBox="0 0 20 11" fill="none" xmlns="http://www.w3.org/2000/svg">
<path d="M18.8002 0.74C18.9302 0.32 18.8002 0 18.1802 0H16.1602C15.6402 0 15.4102 0.27 15.2802 0.57C15.2802 0.57 14.2502 3.08 12.7902 4.72C12.3102 5.19 12.1002 5.34 11.8402 5.34C11.7102 5.34 11.5002 5.19 11.5002 4.76V0.74C11.5002 0.23 11.3802 0 10.9502 0H7.7602C7.4402 0 7.2502 0.24 7.2502 0.47C7.2502 0.95 8.0002 1.07 8.0502 2.44V5.42C8.0502 6.08 7.9302 6.2 7.6802 6.2C7.0002 6.2 5.3202 3.67 4.3302 0.79C4.1302 0.23 3.9402 0 3.4202 0H1.3902C0.820195 0 0.700195 0.27 0.700195 0.57C0.700195 1.11 1.3902 3.77 3.9002 7.29C5.5702 9.7 7.9302 11 10.0802 11C11.3702 11 11.5302 10.71 11.5302 10.21V8.39C11.5302 7.82 11.6502 7.7 12.0602 7.7C12.3602 7.7 12.8702 7.85 14.0702 9C15.4502 10.38 15.6702 11 16.4502 11H18.4702C19.0502 11 19.3402 10.71 19.1802 10.14C19.0002 9.57 18.3402 8.74 17.4702 7.76C17.0002 7.21 16.2902 6.61 16.0702 6.3C15.7702 5.92 15.8602 5.75 16.0702 5.4C16.0702 5.4 18.5402 1.93 18.8002 0.74Z" fill="#627DA1"/>
</svg>
